<svg xmlns="http://www.w3.org/2000/svg" xmlns:xlink="http://www.w3.org/1999/xlink" width="375" viewBox="0 0 375 375" height="375" version="1.0"><defs><g id="a"><path d="M 16.953125 -26.046875 L 16.953125 -20.828125 L 7.828125 -20.828125 L 7.828125 -15.65625 L 16.25 -15.65625 L 16.25 -10.453125 L 7.828125 -10.453125 L 7.828125 0 L 1.890625 0 L 1.890625 -26.046875 Z M 16.953125 -26.046875"/></g><g id="b"><path d="M 7.828125 -26.046875 L 7.828125 -5.203125 L 16.796875 -5.203125 L 16.796875 0 L 1.890625 0 L 1.890625 -26.046875 Z M 7.828125 -26.046875"/></g><g id="c"><path d="M 7.828125 -26.046875 L 7.828125 0 L 1.890625 0 L 1.890625 -26.046875 Z M 7.828125 -26.046875"/></g><g id="d"><path d="M 26.265625 0 L 18.59375 0 L 12.4375 -8.875 L 6.28125 0 L -1.078125 0 L 8.78125 -14.015625 L 0.5625 -26.046875 L 7.640625 -26.046875 L 12.4375 -18.9375 L 17.234375 -26.046875 L 24.625 -26.046875 L 16.09375 -14.015625 Z M 26.265625 0"/></g><clipPath id="e"><path d="M 135.277344 111 L 177 111 L 177 125 L 135.277344 125 Z M 135.277344 111"/></clipPath><clipPath id="f"><path d="M 135.277344 133 L 239.527344 133 L 239.527344 191 L 135.277344 191 Z M 135.277344 133"/></clipPath><clipPath id="g"><path d="M 168.671875 131.03125 L 206.171875 131.03125 L 206.171875 194.03125 L 168.671875 194.03125 Z M 168.671875 131.03125"/></clipPath></defs><path fill="#FFF" d="M-37.5 -37.5H412.5V412.5H-37.5z"/><path fill="#FFF" d="M-37.5 -37.5H412.5V412.5H-37.5z"/><path fill="#2B2B2B" d="M-37.5 -37.5H412.5V412.5H-37.5z"/><g fill="#EFEFEF"><use x="147.119" y="228.078" xmlns:xlink="http://www.w3.org/1999/xlink" xlink:href="#a" xlink:type="simple" xlink:actuate="onLoad" xlink:show="embed"/></g><g fill="#EFEFEF"><use x="168.233" y="228.078" xmlns:xlink="http://www.w3.org/1999/xlink" xlink:href="#b" xlink:type="simple" xlink:actuate="onLoad" xlink:show="embed"/></g><g fill="#EFEFEF"><use x="189.284" y="228.078" xmlns:xlink="http://www.w3.org/1999/xlink" xlink:href="#c" xlink:type="simple" xlink:actuate="onLoad" xlink:show="embed"/></g><g fill="#EFEFEF"><use x="202.224" y="228.078" xmlns:xlink="http://www.w3.org/1999/xlink" xlink:href="#d" xlink:type="simple" xlink:actuate="onLoad" xlink:show="embed"/></g><path fill="#EFEFEF" d="M 200.164062 111.074219 L 184.375 111.074219 L 177.234375 124.710938 L 192.160156 124.710938 Z M 200.164062 111.074219"/><path fill="#EFEFEF" d="M 223.523438 111.074219 L 207.949219 111.074219 L 200.8125 124.710938 L 215.519531 124.710938 Z M 223.523438 111.074219"/><path fill="#EFEFEF" d="M 238.878906 111.074219 L 230.660156 111.074219 L 224.386719 124.710938 L 238.878906 124.710938 Z M 238.878906 111.074219"/><g clip-path="url(#e)"><path fill="#EFEFEF" d="M 176.371094 111.289062 L 135.277344 111.289062 L 135.277344 124.710938 L 169.015625 124.710938 Z M 176.371094 111.289062"/></g><g clip-path="url(#f)"><path fill="#EFEFEF" d="M 135.492188 183.597656 C 135.492188 187.492188 138.953125 190.742188 143.28125 190.742188 L 231.742188 190.742188 C 236.066406 190.742188 239.527344 187.492188 239.527344 183.597656 L 239.527344 133.804688 L 135.710938 133.804688 C 135.492188 133.589844 135.492188 183.597656 135.492188 183.597656 Z M 174.207031 155.238281 C 174.207031 151.339844 177.234375 149.390625 181.128906 151.339844 L 197.566406 158.917969 C 201.460938 160.648438 201.460938 163.679688 197.566406 165.410156 L 181.128906 172.988281 C 177.234375 174.71875 174.207031 172.988281 174.207031 169.09375 Z M 174.207031 155.238281"/></g><path fill="#EFEFEF" d="M 139.726562 144.257812 L 234.949219 144.257812 L 234.949219 180.257812 L 139.726562 180.257812 Z M 139.726562 144.257812"/><g clip-path="url(#g)"><path fill="#2B2B2B" d="M 189.53125 131.03125 L 169.53125 137.332031 C 169.03125 137.582031 168.671875 138.089844 168.671875 138.59375 L 168.671875 187.734375 C 168.671875 188.363281 169.0625 188.863281 169.6875 188.992188 L 189.6875 194.03125 L 189.921875 194.03125 C 190.171875 194.03125 190.414062 193.925781 190.664062 193.796875 C 190.914062 193.546875 191.171875 193.152344 191.171875 192.773438 L 191.171875 132.292969 C 191.171875 131.914062 190.914062 131.519531 190.664062 131.269531 C 190.289062 131.019531 189.90625 131.03125 189.53125 131.03125 Z M 193.671875 136.074219 L 193.671875 138.59375 L 203.671875 138.59375 L 203.671875 186.472656 L 193.671875 186.472656 L 193.671875 188.992188 L 204.921875 188.992188 C 205.609375 188.992188 206.171875 188.425781 206.171875 187.734375 L 206.171875 137.332031 C 206.171875 136.640625 205.609375 136.074219 204.921875 136.074219 Z M 186.171875 161.273438 C 186.921875 161.273438 187.421875 162.152344 187.421875 163.164062 C 187.421875 164.171875 186.921875 165.054688 186.171875 165.054688 C 185.417969 165.054688 184.921875 164.171875 184.921875 163.164062 C 184.921875 162.152344 185.417969 161.273438 186.171875 161.273438 Z M 186.171875 161.273438"/></g></svg>